<mxfile host="app.diagrams.net" modified="2021-05-22T13:20:30.373Z" agent="5.0 (Windows NT 10.0; Win64; x64) AppleWebKit/537.36 (KHTML, like Gecko) Chrome/90.0.4430.212 Safari/537.36" etag="eX9MDn3Znzn3CFEP7L75" version="14.6.12" type="github">
  <diagram id="kgpKYQtTHZ0yAKxKKP6v" name="Page-1">
    <mxGraphModel dx="1219" dy="2561" grid="1" gridSize="10" guides="1" tooltips="1" connect="1" arrows="1" fold="1" page="1" pageScale="1" pageWidth="1200" pageHeight="1920" math="0" shadow="0">
      <root>
        <mxCell id="0" />
        <mxCell id="1" parent="0" />
        <mxCell id="3nuBFxr9cyL0pnOWT2aG-1" value="c: Customer" style="shape=umlLifeline;perimeter=lifelinePerimeter;container=1;collapsible=0;recursiveResize=0;rounded=0;shadow=0;strokeWidth=1;" parent="1" vertex="1">
          <mxGeometry x="70" y="-1840" width="100" height="300" as="geometry" />
        </mxCell>
        <mxCell id="3nuBFxr9cyL0pnOWT2aG-2" value="" style="points=[];perimeter=orthogonalPerimeter;rounded=0;shadow=0;strokeWidth=1;" parent="3nuBFxr9cyL0pnOWT2aG-1" vertex="1">
          <mxGeometry x="45" y="70" width="10" height="190" as="geometry" />
        </mxCell>
        <mxCell id="3nuBFxr9cyL0pnOWT2aG-5" value="cc: CustomerController" style="shape=umlLifeline;perimeter=lifelinePerimeter;container=1;collapsible=0;recursiveResize=0;rounded=0;shadow=0;strokeWidth=1;" parent="1" vertex="1">
          <mxGeometry x="280" y="-1840" width="130" height="320" as="geometry" />
        </mxCell>
        <mxCell id="3nuBFxr9cyL0pnOWT2aG-6" value="" style="points=[];perimeter=orthogonalPerimeter;rounded=0;shadow=0;strokeWidth=1;" parent="3nuBFxr9cyL0pnOWT2aG-5" vertex="1">
          <mxGeometry x="58" y="80" width="10" height="160" as="geometry" />
        </mxCell>
        <mxCell id="3nuBFxr9cyL0pnOWT2aG-7" value="4.Return(Fee)" style="verticalAlign=bottom;endArrow=open;dashed=1;endSize=8;exitX=0;exitY=0.95;shadow=0;strokeWidth=1;" parent="1" source="3nuBFxr9cyL0pnOWT2aG-6" target="3nuBFxr9cyL0pnOWT2aG-2" edge="1">
          <mxGeometry relative="1" as="geometry">
            <mxPoint x="225" y="-1684" as="targetPoint" />
          </mxGeometry>
        </mxCell>
        <mxCell id="3nuBFxr9cyL0pnOWT2aG-8" value="1.RequestFee(RoomID)" style="verticalAlign=bottom;endArrow=block;entryX=0;entryY=0;shadow=0;strokeWidth=1;" parent="1" source="3nuBFxr9cyL0pnOWT2aG-2" target="3nuBFxr9cyL0pnOWT2aG-6" edge="1">
          <mxGeometry relative="1" as="geometry">
            <mxPoint x="225" y="-1760" as="sourcePoint" />
          </mxGeometry>
        </mxCell>
        <mxCell id="3nuBFxr9cyL0pnOWT2aG-9" value="2.GetFee" style="verticalAlign=bottom;endArrow=block;shadow=0;strokeWidth=1;" parent="1" edge="1">
          <mxGeometry relative="1" as="geometry">
            <mxPoint x="349" y="-1724" as="sourcePoint" />
            <mxPoint x="501" y="-1724" as="targetPoint" />
          </mxGeometry>
        </mxCell>
        <mxCell id="3nuBFxr9cyL0pnOWT2aG-10" value="3.Return(Fee)" style="verticalAlign=bottom;endArrow=open;dashed=1;endSize=8;exitX=1;exitY=0.95;shadow=0;strokeWidth=1;" parent="1" source="3nuBFxr9cyL0pnOWT2aG-4" target="3nuBFxr9cyL0pnOWT2aG-6" edge="1">
          <mxGeometry relative="1" as="geometry">
            <mxPoint x="190" y="-1663" as="targetPoint" />
          </mxGeometry>
        </mxCell>
        <mxCell id="XMyAMqQeNzmtMJznp1gP-3" value="s: Service" style="shape=umlLifeline;perimeter=lifelinePerimeter;container=1;collapsible=0;recursiveResize=0;rounded=0;shadow=0;strokeWidth=1;" vertex="1" parent="1">
          <mxGeometry x="460" y="-1840" width="100" height="320" as="geometry" />
        </mxCell>
        <mxCell id="3nuBFxr9cyL0pnOWT2aG-4" value="" style="points=[];perimeter=orthogonalPerimeter;rounded=0;shadow=0;strokeWidth=1;" parent="XMyAMqQeNzmtMJznp1gP-3" vertex="1">
          <mxGeometry x="45" y="110" width="10" height="80" as="geometry" />
        </mxCell>
        <mxCell id="XMyAMqQeNzmtMJznp1gP-15" value="m: Maintainer" style="shape=umlLifeline;perimeter=lifelinePerimeter;container=1;collapsible=0;recursiveResize=0;rounded=0;shadow=0;strokeWidth=1;" vertex="1" parent="1">
          <mxGeometry x="620" y="-1800" width="100" height="300" as="geometry" />
        </mxCell>
        <mxCell id="XMyAMqQeNzmtMJznp1gP-16" value="" style="points=[];perimeter=orthogonalPerimeter;rounded=0;shadow=0;strokeWidth=1;" vertex="1" parent="XMyAMqQeNzmtMJznp1gP-15">
          <mxGeometry x="45" y="70" width="10" height="190" as="geometry" />
        </mxCell>
        <mxCell id="XMyAMqQeNzmtMJznp1gP-17" value="mc: MaintainerController" style="shape=umlLifeline;perimeter=lifelinePerimeter;container=1;collapsible=0;recursiveResize=0;rounded=0;shadow=0;strokeWidth=1;" vertex="1" parent="1">
          <mxGeometry x="1000" y="-1800" width="130" height="320" as="geometry" />
        </mxCell>
        <mxCell id="XMyAMqQeNzmtMJznp1gP-18" value="" style="points=[];perimeter=orthogonalPerimeter;rounded=0;shadow=0;strokeWidth=1;" vertex="1" parent="XMyAMqQeNzmtMJznp1gP-17">
          <mxGeometry x="58" y="80" width="10" height="160" as="geometry" />
        </mxCell>
        <mxCell id="XMyAMqQeNzmtMJznp1gP-19" value="4.Return(state, Current_Temp, Target_Temp, Fan, FeeRate, Fee, Duration)" style="verticalAlign=bottom;endArrow=open;dashed=1;endSize=8;exitX=0;exitY=0.95;shadow=0;strokeWidth=1;" edge="1" parent="1" source="XMyAMqQeNzmtMJznp1gP-18" target="XMyAMqQeNzmtMJznp1gP-16">
          <mxGeometry relative="1" as="geometry">
            <mxPoint x="865" y="-1644" as="targetPoint" />
          </mxGeometry>
        </mxCell>
        <mxCell id="XMyAMqQeNzmtMJznp1gP-20" value="1. CheckRoomState()" style="verticalAlign=bottom;endArrow=block;entryX=0;entryY=0;shadow=0;strokeWidth=1;" edge="1" parent="1" source="XMyAMqQeNzmtMJznp1gP-16" target="XMyAMqQeNzmtMJznp1gP-18">
          <mxGeometry relative="1" as="geometry">
            <mxPoint x="865" y="-1720" as="sourcePoint" />
          </mxGeometry>
        </mxCell>
        <mxCell id="XMyAMqQeNzmtMJznp1gP-21" value="2.CheckRoomState()" style="verticalAlign=bottom;endArrow=block;shadow=0;strokeWidth=1;" edge="1" parent="1" target="XMyAMqQeNzmtMJznp1gP-23">
          <mxGeometry relative="1" as="geometry">
            <mxPoint x="1070" y="-1684" as="sourcePoint" />
            <mxPoint x="1141" y="-1684" as="targetPoint" />
          </mxGeometry>
        </mxCell>
        <mxCell id="XMyAMqQeNzmtMJznp1gP-22" value="3.Return(state, Current_Temp, Fan, FeeRate, Fee, Duration)" style="verticalAlign=bottom;endArrow=open;dashed=1;endSize=8;exitX=1;exitY=0.95;shadow=0;strokeWidth=1;" edge="1" parent="1" source="XMyAMqQeNzmtMJznp1gP-24" target="XMyAMqQeNzmtMJznp1gP-18">
          <mxGeometry relative="1" as="geometry">
            <mxPoint x="830" y="-1623" as="targetPoint" />
          </mxGeometry>
        </mxCell>
        <mxCell id="XMyAMqQeNzmtMJznp1gP-23" value="s: Service" style="shape=umlLifeline;perimeter=lifelinePerimeter;container=1;collapsible=0;recursiveResize=0;rounded=0;shadow=0;strokeWidth=1;" vertex="1" parent="1">
          <mxGeometry x="1320" y="-1800" width="100" height="320" as="geometry" />
        </mxCell>
        <mxCell id="XMyAMqQeNzmtMJznp1gP-24" value="" style="points=[];perimeter=orthogonalPerimeter;rounded=0;shadow=0;strokeWidth=1;" vertex="1" parent="XMyAMqQeNzmtMJznp1gP-23">
          <mxGeometry x="45" y="110" width="10" height="60" as="geometry" />
        </mxCell>
        <mxCell id="XMyAMqQeNzmtMJznp1gP-27" value="manager: 经理" style="shape=umlLifeline;perimeter=lifelinePerimeter;container=1;collapsible=0;recursiveResize=0;rounded=0;shadow=0;strokeWidth=1;" vertex="1" parent="1">
          <mxGeometry x="90" y="-1340" width="100" height="620" as="geometry" />
        </mxCell>
        <mxCell id="XMyAMqQeNzmtMJznp1gP-28" value="" style="points=[];perimeter=orthogonalPerimeter;rounded=0;shadow=0;strokeWidth=1;" vertex="1" parent="XMyAMqQeNzmtMJznp1gP-27">
          <mxGeometry x="45" y="70" width="10" height="510" as="geometry" />
        </mxCell>
        <mxCell id="XMyAMqQeNzmtMJznp1gP-29" value="qrc：QRController" style="shape=umlLifeline;perimeter=lifelinePerimeter;container=1;collapsible=0;recursiveResize=0;rounded=0;shadow=0;strokeWidth=1;" vertex="1" parent="1">
          <mxGeometry x="260" y="-1340" width="100" height="620" as="geometry" />
        </mxCell>
        <mxCell id="XMyAMqQeNzmtMJznp1gP-30" value="" style="points=[];perimeter=orthogonalPerimeter;rounded=0;shadow=0;strokeWidth=1;" vertex="1" parent="XMyAMqQeNzmtMJznp1gP-29">
          <mxGeometry x="45" y="70" width="10" height="510" as="geometry" />
        </mxCell>
        <mxCell id="XMyAMqQeNzmtMJznp1gP-31" value="s: Service" style="shape=umlLifeline;perimeter=lifelinePerimeter;container=1;collapsible=0;recursiveResize=0;rounded=0;shadow=0;strokeWidth=1;" vertex="1" parent="1">
          <mxGeometry x="420" y="-1270" width="100" height="550" as="geometry" />
        </mxCell>
        <mxCell id="XMyAMqQeNzmtMJznp1gP-33" value="r: Report" style="shape=umlLifeline;perimeter=lifelinePerimeter;container=1;collapsible=0;recursiveResize=0;rounded=0;shadow=0;strokeWidth=1;" vertex="1" parent="1">
          <mxGeometry x="550" y="-1200" width="100" height="480" as="geometry" />
        </mxCell>
        <mxCell id="XMyAMqQeNzmtMJznp1gP-34" value="" style="points=[];perimeter=orthogonalPerimeter;rounded=0;shadow=0;strokeWidth=1;" vertex="1" parent="XMyAMqQeNzmtMJznp1gP-33">
          <mxGeometry x="45" y="80" width="10" height="230" as="geometry" />
        </mxCell>
        <mxCell id="XMyAMqQeNzmtMJznp1gP-35" value="dbf: DBFacade" style="shape=umlLifeline;perimeter=lifelinePerimeter;container=1;collapsible=0;recursiveResize=0;rounded=0;shadow=0;strokeWidth=1;" vertex="1" parent="1">
          <mxGeometry x="710" y="-1340" width="100" height="670" as="geometry" />
        </mxCell>
        <mxCell id="XMyAMqQeNzmtMJznp1gP-36" value="" style="points=[];perimeter=orthogonalPerimeter;rounded=0;shadow=0;strokeWidth=1;" vertex="1" parent="XMyAMqQeNzmtMJznp1gP-35">
          <mxGeometry x="45" y="220" width="10" height="230" as="geometry" />
        </mxCell>
        <mxCell id="XMyAMqQeNzmtMJznp1gP-37" value="dem: DetailRecordMapper" style="shape=umlLifeline;perimeter=lifelinePerimeter;container=1;collapsible=0;recursiveResize=0;rounded=0;shadow=0;strokeWidth=1;" vertex="1" parent="1">
          <mxGeometry x="950" y="-1340" width="150" height="650" as="geometry" />
        </mxCell>
        <mxCell id="XMyAMqQeNzmtMJznp1gP-38" value="" style="points=[];perimeter=orthogonalPerimeter;rounded=0;shadow=0;strokeWidth=1;" vertex="1" parent="XMyAMqQeNzmtMJznp1gP-37">
          <mxGeometry x="70" y="350" width="10" height="80" as="geometry" />
        </mxCell>
        <mxCell id="XMyAMqQeNzmtMJznp1gP-39" value="1. QueryReport(list_Roomid, &#xa;type, Report, date)" style="verticalAlign=bottom;endArrow=block;shadow=0;strokeWidth=1;" edge="1" parent="1">
          <mxGeometry relative="1" as="geometry">
            <mxPoint x="146.99999999999977" y="-1269.9999999999998" as="sourcePoint" />
            <mxPoint x="300" y="-1270" as="targetPoint" />
          </mxGeometry>
        </mxCell>
        <mxCell id="XMyAMqQeNzmtMJznp1gP-44" value="1.1 create" style="verticalAlign=bottom;endArrow=open;dashed=1;endSize=8;shadow=0;strokeWidth=1;" edge="1" parent="1">
          <mxGeometry relative="1" as="geometry">
            <mxPoint x="420" y="-1259" as="targetPoint" />
            <mxPoint x="320" y="-1259" as="sourcePoint" />
          </mxGeometry>
        </mxCell>
        <mxCell id="XMyAMqQeNzmtMJznp1gP-45" value="2. create" style="verticalAlign=bottom;endArrow=open;dashed=1;endSize=8;shadow=0;strokeWidth=1;exitX=1.106;exitY=0.072;exitDx=0;exitDy=0;exitPerimeter=0;" edge="1" parent="1">
          <mxGeometry relative="1" as="geometry">
            <mxPoint x="550" y="-1191" as="targetPoint" />
            <mxPoint x="476.05999999999995" y="-1191.36" as="sourcePoint" />
          </mxGeometry>
        </mxCell>
        <mxCell id="XMyAMqQeNzmtMJznp1gP-46" value="3. query(Roomid, StartDate, &#xa;EndDate, DetailRecord)" style="verticalAlign=bottom;endArrow=block;shadow=0;strokeWidth=1;" edge="1" parent="1">
          <mxGeometry relative="1" as="geometry">
            <mxPoint x="610" y="-1111" as="sourcePoint" />
            <mxPoint x="752.9999999999998" y="-1110.59" as="targetPoint" />
          </mxGeometry>
        </mxCell>
        <mxCell id="XMyAMqQeNzmtMJznp1gP-50" value="" style="points=[];perimeter=orthogonalPerimeter;rounded=0;shadow=0;strokeWidth=1;" vertex="1" parent="1">
          <mxGeometry x="760" y="-1089" width="10" height="40" as="geometry" />
        </mxCell>
        <mxCell id="XMyAMqQeNzmtMJznp1gP-48" style="edgeStyle=orthogonalEdgeStyle;rounded=0;orthogonalLoop=1;jettySize=auto;html=1;exitX=1;exitY=0.083;exitDx=0;exitDy=0;exitPerimeter=0;entryX=1;entryY=0.25;entryDx=0;entryDy=0;entryPerimeter=0;" edge="1" parent="1" source="XMyAMqQeNzmtMJznp1gP-36" target="XMyAMqQeNzmtMJznp1gP-50">
          <mxGeometry relative="1" as="geometry">
            <mxPoint x="780" y="-1080" as="targetPoint" />
            <mxPoint x="770" y="-1090" as="sourcePoint" />
            <Array as="points">
              <mxPoint x="820" y="-1107" />
              <mxPoint x="820" y="-1080" />
            </Array>
          </mxGeometry>
        </mxCell>
        <mxCell id="XMyAMqQeNzmtMJznp1gP-51" value="3.1 getMapper(DetailRecord)" style="text;html=1;align=center;verticalAlign=middle;resizable=0;points=[];autosize=1;strokeColor=none;" vertex="1" parent="1">
          <mxGeometry x="790" y="-1105" width="170" height="20" as="geometry" />
        </mxCell>
        <mxCell id="XMyAMqQeNzmtMJznp1gP-58" value="3.2 getMapper(DetailRecord)" style="text;html=1;align=center;verticalAlign=middle;resizable=0;points=[];autosize=1;strokeColor=none;" vertex="1" parent="1">
          <mxGeometry x="790" y="-1040" width="170" height="20" as="geometry" />
        </mxCell>
        <mxCell id="XMyAMqQeNzmtMJznp1gP-59" value="" style="verticalAlign=bottom;endArrow=block;shadow=0;strokeWidth=1;" edge="1" parent="1">
          <mxGeometry x="0.8178" y="9" relative="1" as="geometry">
            <mxPoint x="768" y="-961" as="sourcePoint" />
            <mxPoint x="1022.5" y="-961" as="targetPoint" />
            <mxPoint x="1" as="offset" />
          </mxGeometry>
        </mxCell>
        <mxCell id="XMyAMqQeNzmtMJznp1gP-60" value="3.3 query(Roomid, StateDate, EndDate)" style="text;html=1;align=center;verticalAlign=middle;resizable=0;points=[];autosize=1;strokeColor=none;" vertex="1" parent="1">
          <mxGeometry x="770" y="-990" width="230" height="20" as="geometry" />
        </mxCell>
        <mxCell id="XMyAMqQeNzmtMJznp1gP-62" value="3.4 Return(RoomId, Duration, &#xa;TotalFee, TimeofDispatch, NumRDR)" style="verticalAlign=bottom;endArrow=open;dashed=1;endSize=8;shadow=0;strokeWidth=1;exitX=0.524;exitY=0.956;exitDx=0;exitDy=0;exitPerimeter=0;" edge="1" parent="1">
          <mxGeometry relative="1" as="geometry">
            <mxPoint x="760" y="-908" as="targetPoint" />
            <mxPoint x="1028.6" y="-910.0000000000002" as="sourcePoint" />
          </mxGeometry>
        </mxCell>
        <mxCell id="XMyAMqQeNzmtMJznp1gP-66" value="" style="verticalAlign=bottom;endArrow=open;dashed=1;endSize=8;shadow=0;strokeWidth=1;exitX=0.524;exitY=0.956;exitDx=0;exitDy=0;exitPerimeter=0;" edge="1" parent="1">
          <mxGeometry relative="1" as="geometry">
            <mxPoint x="600" y="-890" as="targetPoint" />
            <mxPoint x="759.9999999999999" y="-892.0000000000002" as="sourcePoint" />
          </mxGeometry>
        </mxCell>
        <mxCell id="XMyAMqQeNzmtMJznp1gP-67" value="4. Return(RoomId, Duration, &lt;br&gt;TotalFee, TimeofDispatch,&lt;br&gt;NumRDR)" style="text;html=1;align=center;verticalAlign=middle;resizable=0;points=[];autosize=1;strokeColor=none;" vertex="1" parent="1">
          <mxGeometry x="600" y="-924" width="170" height="50" as="geometry" />
        </mxCell>
        <mxCell id="XMyAMqQeNzmtMJznp1gP-68" value="Loop" style="shape=umlFrame;whiteSpace=wrap;html=1;" vertex="1" parent="1">
          <mxGeometry x="530" y="-1145" width="560" height="285" as="geometry" />
        </mxCell>
        <mxCell id="XMyAMqQeNzmtMJznp1gP-69" value="" style="verticalAlign=bottom;endArrow=none;dashed=1;endSize=8;shadow=0;strokeWidth=1;exitX=1.106;exitY=0.072;exitDx=0;exitDy=0;exitPerimeter=0;elbow=vertical;edgeStyle=orthogonalEdgeStyle;rounded=0;" edge="1" parent="1" target="XMyAMqQeNzmtMJznp1gP-68">
          <mxGeometry relative="1" as="geometry">
            <mxPoint x="759.3235294117646" y="-1009" as="targetPoint" />
            <mxPoint x="770" y="-1048.94" as="sourcePoint" />
            <Array as="points">
              <mxPoint x="820" y="-1049" />
              <mxPoint x="820" y="-1009" />
            </Array>
          </mxGeometry>
        </mxCell>
        <mxCell id="XMyAMqQeNzmtMJznp1gP-70" value="5.Return(RoomId, Duration,&#xa;TotalFee, TimeofDispatch,&#xa; NumRDR)" style="verticalAlign=bottom;endArrow=open;dashed=1;endSize=8;exitX=0;exitY=0.95;shadow=0;strokeWidth=1;" edge="1" parent="1">
          <mxGeometry relative="1" as="geometry">
            <mxPoint x="140" y="-760" as="targetPoint" />
            <mxPoint x="313" y="-760" as="sourcePoint" />
          </mxGeometry>
        </mxCell>
        <mxCell id="XMyAMqQeNzmtMJznp1gP-79" value="manager: 经理" style="shape=umlLifeline;perimeter=lifelinePerimeter;container=1;collapsible=0;recursiveResize=0;rounded=0;shadow=0;strokeWidth=1;" vertex="1" parent="1">
          <mxGeometry x="100" y="-610" width="100" height="320" as="geometry" />
        </mxCell>
        <mxCell id="XMyAMqQeNzmtMJznp1gP-81" value="prc: PRController" style="shape=umlLifeline;perimeter=lifelinePerimeter;container=1;collapsible=0;recursiveResize=0;rounded=0;shadow=0;strokeWidth=1;" vertex="1" parent="1">
          <mxGeometry x="310" y="-610" width="130" height="320" as="geometry" />
        </mxCell>
        <mxCell id="XMyAMqQeNzmtMJznp1gP-82" value="" style="points=[];perimeter=orthogonalPerimeter;rounded=0;shadow=0;strokeWidth=1;" vertex="1" parent="XMyAMqQeNzmtMJznp1gP-81">
          <mxGeometry x="58" y="80" width="10" height="160" as="geometry" />
        </mxCell>
        <mxCell id="XMyAMqQeNzmtMJznp1gP-83" value="3.Return(isOK)" style="verticalAlign=bottom;endArrow=open;dashed=1;endSize=8;exitX=0;exitY=0.95;shadow=0;strokeWidth=1;" edge="1" parent="1" source="XMyAMqQeNzmtMJznp1gP-82">
          <mxGeometry relative="1" as="geometry">
            <mxPoint x="154.99999999999977" y="-378" as="targetPoint" />
          </mxGeometry>
        </mxCell>
        <mxCell id="XMyAMqQeNzmtMJznp1gP-84" value="1. PrintReport(ReportId, date)" style="verticalAlign=bottom;endArrow=block;entryX=0;entryY=0;shadow=0;strokeWidth=1;" edge="1" parent="1" target="XMyAMqQeNzmtMJznp1gP-82">
          <mxGeometry relative="1" as="geometry">
            <mxPoint x="154.99999999999977" y="-530" as="sourcePoint" />
          </mxGeometry>
        </mxCell>
        <mxCell id="XMyAMqQeNzmtMJznp1gP-85" value="2.create" style="verticalAlign=bottom;endArrow=block;shadow=0;strokeWidth=1;" edge="1" parent="1">
          <mxGeometry relative="1" as="geometry">
            <mxPoint x="379" y="-494" as="sourcePoint" />
            <mxPoint x="560" y="-494" as="targetPoint" />
          </mxGeometry>
        </mxCell>
        <mxCell id="XMyAMqQeNzmtMJznp1gP-87" value="rf: ReportFile" style="shape=umlLifeline;perimeter=lifelinePerimeter;container=1;collapsible=0;recursiveResize=0;rounded=0;shadow=0;strokeWidth=1;" vertex="1" parent="1">
          <mxGeometry x="560" y="-520" width="100" height="230" as="geometry" />
        </mxCell>
        <mxCell id="XMyAMqQeNzmtMJznp1gP-89" value="interface:PrintReport" style="shape=umlFrame;whiteSpace=wrap;html=1;" vertex="1" parent="1">
          <mxGeometry x="50" y="-650" width="630" height="370" as="geometry" />
        </mxCell>
        <mxCell id="XMyAMqQeNzmtMJznp1gP-90" value="manager: 经理" style="shape=umlLifeline;perimeter=lifelinePerimeter;container=1;collapsible=0;recursiveResize=0;rounded=0;shadow=0;strokeWidth=1;" vertex="1" parent="1">
          <mxGeometry x="800" y="-600" width="100" height="320" as="geometry" />
        </mxCell>
        <mxCell id="XMyAMqQeNzmtMJznp1gP-91" value="prc: PRController" style="shape=umlLifeline;perimeter=lifelinePerimeter;container=1;collapsible=0;recursiveResize=0;rounded=0;shadow=0;strokeWidth=1;" vertex="1" parent="1">
          <mxGeometry x="1010" y="-600" width="130" height="320" as="geometry" />
        </mxCell>
        <mxCell id="XMyAMqQeNzmtMJznp1gP-92" value="" style="points=[];perimeter=orthogonalPerimeter;rounded=0;shadow=0;strokeWidth=1;" vertex="1" parent="XMyAMqQeNzmtMJznp1gP-91">
          <mxGeometry x="58" y="80" width="10" height="160" as="geometry" />
        </mxCell>
        <mxCell id="XMyAMqQeNzmtMJznp1gP-93" value="3.Return(isOK)" style="verticalAlign=bottom;endArrow=open;dashed=1;endSize=8;exitX=0;exitY=0.95;shadow=0;strokeWidth=1;" edge="1" parent="1" source="XMyAMqQeNzmtMJznp1gP-92">
          <mxGeometry relative="1" as="geometry">
            <mxPoint x="854.9999999999998" y="-368" as="targetPoint" />
          </mxGeometry>
        </mxCell>
        <mxCell id="XMyAMqQeNzmtMJznp1gP-94" value="1. DeleteReport(ReportId, date)" style="verticalAlign=bottom;endArrow=block;entryX=0;entryY=0;shadow=0;strokeWidth=1;" edge="1" parent="1" target="XMyAMqQeNzmtMJznp1gP-92">
          <mxGeometry relative="1" as="geometry">
            <mxPoint x="854.9999999999998" y="-520" as="sourcePoint" />
          </mxGeometry>
        </mxCell>
        <mxCell id="XMyAMqQeNzmtMJznp1gP-95" value="2.delete" style="verticalAlign=bottom;endArrow=block;shadow=0;strokeWidth=1;" edge="1" parent="1">
          <mxGeometry relative="1" as="geometry">
            <mxPoint x="1079" y="-484" as="sourcePoint" />
            <mxPoint x="1259.9999999999998" y="-484" as="targetPoint" />
          </mxGeometry>
        </mxCell>
        <mxCell id="XMyAMqQeNzmtMJznp1gP-96" value="rf: ReportFile" style="shape=umlLifeline;perimeter=lifelinePerimeter;container=1;collapsible=0;recursiveResize=0;rounded=0;shadow=0;strokeWidth=1;" vertex="1" parent="1">
          <mxGeometry x="1260" y="-510" width="100" height="139" as="geometry" />
        </mxCell>
        <mxCell id="XMyAMqQeNzmtMJznp1gP-98" value="" style="shape=umlDestroy;whiteSpace=wrap;html=1;strokeWidth=3;" vertex="1" parent="XMyAMqQeNzmtMJznp1gP-96">
          <mxGeometry x="35" y="120" width="30" height="30" as="geometry" />
        </mxCell>
        <mxCell id="XMyAMqQeNzmtMJznp1gP-97" value="interface:DeleteReport" style="shape=umlFrame;whiteSpace=wrap;html=1;" vertex="1" parent="1">
          <mxGeometry x="750" y="-640" width="630" height="380" as="geometry" />
        </mxCell>
      </root>
    </mxGraphModel>
  </diagram>
</mxfile>
